<svg xmlns="http://www.w3.org/2000/svg" viewBox="0 0 898.5 105.0" width="898.5" height="105.0" role="img" aria-label="ComplyEaze Bridge"><title>ComplyEaze Bridge</title><g transform="translate(4 0)"><path fill="#f6f8fb" d="M40.51 79.13Q32.52 79.13 25.68 76.38Q18.83 73.63 13.71 68.65Q8.58 63.67 5.76 56.98Q2.93 50.3 2.93 42.54Q2.93 34.72 5.76 28.07Q8.58 21.42 13.68 16.52Q18.77 11.62 25.58 8.86Q32.39 6.09 40.38 6.09Q48.75 6.09 55.4 8.76Q62.06 11.43 67.05 16.1L55.67 27.54Q53.03 24.66 49.23 23.02Q45.43 21.38 40.38 21.38Q35.96 21.38 32.27 22.86Q28.59 24.33 25.93 27.13Q23.27 29.93 21.79 33.84Q20.32 37.76 20.32 42.54Q20.32 47.39 21.79 51.31Q23.27 55.23 25.93 58.03Q28.59 60.82 32.27 62.33Q35.96 63.84 40.38 63.84Q45.54 63.84 49.4 62.25Q53.27 60.65 56.04 57.71L67.49 69.15Q62.36 73.86 55.8 76.49Q49.23 79.13 40.51 79.13Z M95.11 79.13Q87.4 79.13 81.27 75.78Q75.15 72.43 71.6 66.6Q68.06 60.77 68.06 53.51Q68.06 46.25 71.57 40.52Q75.08 34.79 81.21 31.44Q87.33 28.09 95.05 28.09Q102.8 28.09 108.89 31.42Q114.98 34.75 118.52 40.5Q122.07 46.25 122.07 53.51Q122.07 60.77 118.55 66.6Q115.04 72.43 108.95 75.78Q102.86 79.13 95.11 79.13ZM95.05 64.24Q98.1 64.24 100.41 62.91Q102.71 61.58 103.98 59.16Q105.24 56.73 105.24 53.57Q105.24 50.42 103.93 48.03Q102.61 45.64 100.36 44.31Q98.1 42.98 95.05 42.98Q92.09 42.98 89.78 44.34Q87.48 45.71 86.18 48.09Q84.89 50.48 84.89 53.64Q84.89 56.73 86.18 59.16Q87.48 61.58 89.78 62.91Q92.09 64.24 95.05 64.24Z M127.99 78V29.22H144.58V78ZM158.85 78V49.66Q158.85 46.36 156.82 44.49Q154.8 42.62 151.77 42.62Q149.68 42.62 148.04 43.46Q146.41 44.3 145.49 45.87Q144.58 47.44 144.58 49.66L138.14 47Q138.14 41.17 140.7 36.98Q143.26 32.78 147.62 30.5Q151.98 28.22 157.47 28.22Q162.51 28.22 166.57 30.55Q170.64 32.88 173.04 37.04Q175.44 41.2 175.44 46.93V78ZM189.71 78V49.66Q189.71 46.36 187.68 44.49Q185.66 42.62 182.63 42.62Q180.57 42.62 178.92 43.46Q177.27 44.3 176.35 45.87Q175.44 47.44 175.44 49.66L165.8 48.89Q165.97 42.48 168.7 37.86Q171.43 33.24 176.11 30.73Q180.78 28.22 186.66 28.22Q192.32 28.22 196.74 30.61Q201.17 33.01 203.74 37.47Q206.3 41.92 206.3 48.17V78Z M243.18 79Q238.4 79 234.36 77.24Q230.32 75.47 227.7 72.35Q225.09 69.22 224.57 65.19V42.68Q225.09 38.65 227.72 35.36Q230.35 32.07 234.38 30.15Q238.42 28.22 243.18 28.22Q250.2 28.22 255.58 31.5Q260.96 34.79 264.01 40.54Q267.06 46.28 267.06 53.64Q267.06 60.97 264.01 66.68Q260.96 72.4 255.58 75.7Q250.2 79 243.18 79ZM214.49 98.65V29.22H231.08V41.57L228.34 53.43L230.76 65.29V98.65ZM240.12 64.18Q243.13 64.18 245.42 62.82Q247.71 61.45 249 59.06Q250.3 56.67 250.3 53.59Q250.3 50.48 249 48.12Q247.71 45.77 245.44 44.4Q243.16 43.04 240.21 43.04Q237.25 43.04 234.96 44.38Q232.68 45.72 231.4 48.1Q230.12 50.48 230.12 53.6Q230.12 56.67 231.37 59.06Q232.61 61.45 234.9 62.82Q237.19 64.18 240.12 64.18Z M273.29 78V5.22H289.88V78Z M363.69 78V7.22H380.72V78ZM376.99 78V63.53H415.54V78ZM376.99 48.93V34.86H411.95V48.93ZM376.99 21.69V7.22H414.98V21.69Z M441.65 79Q434.89 79 429.61 75.7Q424.32 72.4 421.31 66.68Q418.29 60.97 418.29 53.64Q418.29 46.28 421.31 40.54Q424.32 34.79 429.61 31.5Q434.89 28.22 441.65 28.22Q446.37 28.22 450.23 29.98Q454.09 31.75 456.56 34.87Q459.02 38 459.48 42.03V65.19Q459.02 69.22 456.57 72.35Q454.12 75.47 450.25 77.24Q446.37 79 441.65 79ZM445.14 64.18Q449.68 64.18 452.45 61.22Q455.23 58.25 455.23 53.61Q455.23 50.48 453.98 48.12Q452.74 45.77 450.47 44.4Q448.2 43.04 445.21 43.04Q442.25 43.04 439.98 44.4Q437.71 45.77 436.38 48.16Q435.05 50.55 435.05 53.61Q435.05 56.67 436.35 59.06Q437.64 61.45 439.94 62.82Q442.25 64.18 445.14 64.18ZM454.59 78V64.9L457.01 53.01L454.59 41.21V29.22H470.86V78Z M474.64 68.16 498.32 39.06H518.63L494.95 68.16ZM474.64 78V68.16L485.75 64.36H518.03V78ZM476.37 42.86V29.22H518.63V39.06L507.53 42.86Z M548.54 79.13Q540.43 79.13 534.19 75.88Q527.95 72.63 524.4 66.83Q520.86 61.03 520.86 53.61Q520.86 46.25 524.32 40.5Q527.78 34.75 533.79 31.42Q539.8 28.09 547.29 28.09Q554.64 28.09 560.27 31.22Q565.91 34.35 569.12 39.88Q572.33 45.41 572.33 52.51Q572.33 53.9 572.18 55.42Q572.03 56.93 571.6 58.88L528.95 59.08V48.12L564.86 47.93L557.51 52.63Q557.44 48.5 556.3 45.79Q555.15 43.08 552.96 41.68Q550.76 40.27 547.48 40.27Q544.06 40.27 541.54 41.88Q539.03 43.48 537.68 46.44Q536.34 49.4 536.34 53.57Q536.34 57.81 537.78 60.79Q539.23 63.76 541.94 65.32Q544.66 66.88 548.5 66.88Q552.07 66.88 554.9 65.68Q557.72 64.47 559.92 61.97L568.74 70.77Q565.11 74.93 559.98 77.03Q554.85 79.13 548.54 79.13Z"/><path fill="#f6f8fb" d="M292.50 52.62 L310.90 52.62 L324.56 71.15 L316.25 84.85 ZM341.84 27.74 L359.88 27.74 L316.88 98.70 L298.84 98.70 Z"/><path fill="#f6f8fb" transform="translate(598.1 0)" d="M16.49 78V67.34H35.54Q40.61 67.34 43.42 64.23Q46.23 61.11 46.23 56.92Q46.23 54.09 44.97 51.71Q43.71 49.32 41.31 47.91Q38.9 46.5 35.54 46.5H16.49V35.93H33.96Q38.26 35.93 40.87 33.73Q43.48 31.54 43.48 27.21Q43.48 22.87 40.87 20.68Q38.26 18.48 33.96 18.48H16.49V7.82H35.06Q42.07 7.82 46.79 10.4Q51.51 12.97 53.87 17.1Q56.23 21.22 56.23 26.04Q56.23 31.86 52.83 36.15Q49.43 40.44 42.85 42.75L43.58 38.65Q50.89 41.05 54.94 46.04Q58.98 51.03 58.98 57.93Q58.98 63.45 56.26 67.99Q53.55 72.53 48.34 75.27Q43.13 78 35.64 78ZM7.34 78V7.82H20.06V78Z M67.49 78V29.82H79.78V78ZM79.78 51.32 75.19 48.48Q75.76 39.55 79.96 34.18Q84.16 28.82 92.27 28.82Q95.84 28.82 98.67 30.04Q101.5 31.27 103.85 33.96L96.08 42.59Q94.87 41.28 93.31 40.69Q91.74 40.1 89.69 40.1Q85.33 40.1 82.56 42.83Q79.78 45.56 79.78 51.32Z M107.66 78V29.82H119.95V78ZM113.81 21.65Q110.78 21.65 108.78 19.59Q106.78 17.54 106.78 14.51Q106.78 11.48 108.78 9.43Q110.78 7.37 113.81 7.37Q116.93 7.37 118.88 9.43Q120.83 11.48 120.83 14.51Q120.83 17.54 118.88 19.59Q116.93 21.65 113.81 21.65Z M150.87 79Q144.25 79 138.97 75.7Q133.7 72.4 130.64 66.74Q127.59 61.07 127.59 53.98Q127.59 46.8 130.64 41.14Q133.69 35.49 138.95 32.15Q144.22 28.82 150.87 28.82Q156.2 28.82 160.4 31.03Q164.6 33.25 167.14 37.12Q169.67 41 169.78 45.93V61.74Q169.67 66.67 167.18 70.58Q164.68 74.5 160.44 76.75Q156.2 79 150.87 79ZM152.94 67.58Q156.8 67.58 159.65 65.84Q162.51 64.09 164.12 61.02Q165.73 57.94 165.73 53.91Q165.73 49.85 164.12 46.79Q162.5 43.73 159.65 41.99Q156.8 40.24 153 40.24Q149.2 40.24 146.33 41.99Q143.47 43.75 141.81 46.82Q140.15 49.9 140.15 53.91Q140.15 57.92 141.79 61.01Q143.43 64.1 146.33 65.84Q149.24 67.58 152.94 67.58ZM177.26 78H165.04V65.05L167.06 53.31L164.97 41.66V5.82H177.26Z M208.05 99.24Q200.35 99.24 194.54 96.49Q188.74 93.74 185.24 88.74L193.1 80.89Q195.91 84.33 199.48 86.08Q203.04 87.82 208.06 87.82Q214.3 87.82 217.95 84.63Q221.59 81.44 221.59 75.85V63.87L223.68 53.27L221.66 42.6V29.82H233.88V75.73Q233.88 82.81 230.59 88.07Q227.3 93.34 221.48 96.29Q215.66 99.24 208.05 99.24ZM207.49 76.85Q201.02 76.85 195.85 73.69Q190.67 70.53 187.72 65.03Q184.76 59.53 184.76 52.75Q184.76 45.95 187.72 40.54Q190.67 35.13 195.85 31.98Q201.02 28.82 207.49 28.82Q212.98 28.82 217.19 30.99Q221.39 33.16 223.8 37Q226.2 40.83 226.31 45.93V59.74Q226.2 64.76 223.75 68.63Q221.3 72.51 217.1 74.68Q212.9 76.85 207.49 76.85ZM209.91 65.5Q213.66 65.5 216.47 63.89Q219.27 62.28 220.81 59.44Q222.35 56.59 222.35 52.82Q222.35 49.05 220.81 46.2Q219.27 43.36 216.48 41.75Q213.68 40.14 209.92 40.14Q206.18 40.14 203.33 41.75Q200.48 43.36 198.9 46.21Q197.32 49.07 197.32 52.82Q197.32 56.47 198.9 59.37Q200.48 62.27 203.32 63.89Q206.16 65.5 209.91 65.5Z M267.29 79.03Q259.88 79.03 254.01 75.78Q248.15 72.53 244.75 66.81Q241.36 61.08 241.36 53.91Q241.36 46.75 244.7 41.08Q248.03 35.4 253.77 32.1Q259.5 28.79 266.54 28.79Q273.39 28.79 278.65 31.9Q283.91 35 286.92 40.43Q289.93 45.86 289.93 52.81Q289.93 54.05 289.78 55.37Q289.63 56.68 289.3 58.28L249.15 58.33V48.87L283.36 48.83L278.51 52.68Q278.34 48.35 276.92 45.41Q275.5 42.48 272.88 40.93Q270.26 39.37 266.43 39.37Q262.41 39.37 259.44 41.13Q256.48 42.88 254.86 46.06Q253.24 49.25 253.24 53.67Q253.24 58.11 254.96 61.41Q256.68 64.71 259.84 66.5Q263.01 68.28 267.2 68.28Q270.87 68.28 273.95 67Q277.02 65.72 279.22 63.22L286.64 70.72Q283.11 74.83 278.08 76.93Q273.05 79.03 267.29 79.03Z"/></g></svg>
